# xmcd
#
# Track frame offsets:
#	150
#	25706
#	42260
#	60866
#	79229
#	104192
#	119261
#	142027
#	168724
#	184824
#	202509
#	215571
#	232142
#	248664
#	261249
#	282219
#	298139
#	312261
#
# Disc length: 4441 seconds
#
# Revision: 1
# Processed by: cddbd v1.5.1PL2 Copyright (c) Steve Scherf et al.
# Submitted via: audiograbber 1.83.01
#
DISCID=0f115712
DTITLE=Various Artist - Platinum Disc 26
DYEAR=1900
DGENRE=Misc
TTITLE0=After The Fire - Der Kommisar
TTITLE1=Clash - Rock The Casbah
TTITLE2=David Bowie - Let's Dance
TTITLE3=Dire Straits - Walk Of Life
TTITLE4=Duran Duran - Rio
TTITLE5=Fabulous Thunderbirds - Tuff Enough
TTITLE6=Flock Of Seagulls - I Ran (So Far Away)
TTITLE7=Honeydrippers - Rockin' At Midnight
TTITLE8=INXS - What You Need
TTITLE9=J. Giles Band - Freeze Frame
TTITLE10=Joan Jett and The Blackhearts - I Love Rock N Roll
TTITLE11=Kim Carnes - Bette Davis Eyes
TTITLE12=Loverboy - Working For The Weekend
TTITLE13=Olivia Newton John and John Travolta - You're The One That I Want
TTITLE14=Paul Simon - You Can Call Me Al
TTITLE15=Pink Floyd - Another Brick In The Wall
TTITLE16=REM - Stand
TTITLE17=Simple Minds - Don't Forget About Me
EXTD=
EXTT0=
EXTT1=
EXTT2=
EXTT3=
EXTT4=
EXTT5=
EXTT6=
EXTT7=
EXTT8=
EXTT9=
EXTT10=
EXTT11=
EXTT12=
EXTT13=
EXTT14=
EXTT15=
EXTT16=
EXTT17=
PLAYORDER=
